HIERARCHY
ROOT root
{
	OFFSET 0.000000 0.000000 0.000000
	CHANNELS 6 Xposition Yposition Zposition Zrotation Yrotation Xrotation
	JOINT lhip
	{
		OFFSET 0.058581 -0.082280 -0.017664
		CHANNELS 3 Zrotation Yrotation Xrotation
		JOINT lknee
		{
			OFFSET 0.043451 -0.386469 0.008037
			CHANNELS 3 Zrotation Yrotation Xrotation
			JOINT lankle
			{
				OFFSET -0.014790 -0.426874 -0.037428
				CHANNELS 3 Zrotation Yrotation Xrotation
				JOINT ltoe
				{
					OFFSET 0.041054 -0.060286 0.122042
					CHANNELS 3 Zrotation Yrotation Xrotation
					End Site
					{
						OFFSET 0.000000 0.000000 0.000000
					}
				}
			}
		}
	}
	JOINT rhip
	{
		OFFSET -0.060310 -0.090513 -0.013543
		CHANNELS 3 Zrotation Yrotation Xrotation
		JOINT rknee
		{
			OFFSET -0.043257 -0.383688 -0.004843
			CHANNELS 3 Zrotation Yrotation Xrotation
			JOINT rankle
			{
				OFFSET 0.019056 -0.420046 -0.034562
				CHANNELS 3 Zrotation Yrotation Xrotation
				JOINT rtoe
				{
					OFFSET -0.034840 -0.062106 0.130323
					CHANNELS 3 Zrotation Yrotation Xrotation
					End Site
					{
						OFFSET 0.000000 0.000000 0.000000
					}
				}
			}
		}
	}
	JOINT lowerback
	{
		OFFSET 0.004439 0.124404 -0.038385
		CHANNELS 3 Zrotation Yrotation Xrotation
		JOINT upperback
		{
			OFFSET 0.004488 0.137956 0.026820
			CHANNELS 3 Zrotation Yrotation Xrotation
			JOINT chest
			{
				OFFSET -0.002265 0.056032 0.002855
				CHANNELS 3 Zrotation Yrotation Xrotation
				JOINT lowerneck
				{
					OFFSET -0.013390 0.211636 -0.033468
					CHANNELS 3 Zrotation Yrotation Xrotation
					JOINT upperneck
					{
						OFFSET 0.010113 0.088937 0.050410
						CHANNELS 3 Zrotation Yrotation Xrotation
						End Site
						{
							OFFSET 0.000000 0.000000 0.000000
						}
					}
				}
				JOINT lclavicle
				{
					OFFSET 0.071702 0.114000 -0.018898
					CHANNELS 3 Zrotation Yrotation Xrotation
					JOINT lshoulder
					{
						OFFSET 0.122921 0.045205 -0.019046
						CHANNELS 3 Zrotation Yrotation Xrotation
						JOINT lelbow
						{
							OFFSET 0.255332 -0.015649 -0.022946
							CHANNELS 3 Zrotation Yrotation Xrotation
							JOINT lwrist
							{
								OFFSET 0.265709 0.012698 -0.007375
								CHANNELS 3 Zrotation Yrotation Xrotation
								End Site
								{
									OFFSET 0.000000 0.000000 0.000000
								}
							}
						}
					}
				}
				JOINT rclavicle
				{
					OFFSET -0.082954 0.112472 -0.023707
					CHANNELS 3 Zrotation Yrotation Xrotation
					JOINT rshoulder
					{
						OFFSET -0.113228 0.046853 -0.008472
						CHANNELS 3 Zrotation Yrotation Xrotation
						JOINT relbow
						{
							OFFSET -0.260127 -0.014369 -0.031269
							CHANNELS 3 Zrotation Yrotation Xrotation
							JOINT rwrist
							{
								OFFSET -0.269108 0.006794 -0.006027
								CHANNELS 3 Zrotation Yrotation Xrotation
								End Site
								{
									OFFSET 0.000000 0.000000 0.000000
								}
							}
						}
					}
				}
			}
		}
	}
}
MOTION
Frames: 7
Frame Time: 0.033333
-1.703331 0.241234 0.987163 122.010171 -3.772237 88.660962 -2.670109 -8.732347 -0.734058 -2.572921 -18.815998 6.417394 2.689317 3.433980 -12.138711 0.000000 -0.000000 0.000000 -2.652603 -9.692113 -0.311146 -2.870818 -11.553255 15.588272 0.634784 -19.637765 -17.584648 0.000000 -0.000000 0.000000 4.191023 7.570997 5.225775 -5.765740 4.333798 0.212741 -0.554677 3.027928 2.620602 -7.905590 32.517118 -4.619857 -1.127043 32.313458 6.357330 -21.705558 1.779259 -6.689185 -61.056958 -3.736204 3.748820 14.113042 -21.858711 1.677536 15.381707 -7.807130 -4.172013 11.054175 -1.984543 5.808471 66.433670 4.600761 5.249331 -20.629541 18.261000 -9.330258 -23.225152 1.329161 4.921707 
-1.702382 0.243228 0.987545 121.256650 -3.791865 88.556210 -2.744156 -9.012767 -0.312423 -2.594788 -18.751071 5.991384 2.305384 4.566747 -12.055963 0.000000 -0.000000 0.000000 -2.760293 -9.223004 0.004058 -2.647336 -11.075274 15.124503 1.558112 -20.004584 -17.968373 0.000000 -0.000000 0.000000 4.464625 7.307807 5.228273 -5.729940 4.483935 -0.048670 -1.044073 2.402437 2.400372 -6.601554 33.034832 -4.562609 -1.807386 32.299140 8.844247 -23.144482 2.305362 -7.001905 -58.817105 -3.680690 5.107408 14.165101 -21.386379 1.336964 15.037470 -8.182607 -6.269980 13.284592 -2.368360 2.310990 63.597726 3.043758 7.887280 -20.149112 14.975066 -9.543507 -24.230104 1.138536 4.681191 
-1.701324 0.244864 0.987101 120.506614 -3.755195 88.488147 -2.823875 -8.823234 -0.073547 -2.473022 -18.558552 5.876604 2.379627 4.818971 -12.110716 0.000000 -0.000000 0.000000 -2.864227 -9.324909 0.207311 -2.549203 -10.513727 14.914034 1.669403 -19.855243 -17.929202 0.000000 -0.000000 0.000000 4.611340 7.293747 5.091220 -5.860311 4.534182 -0.062732 -1.034030 2.215638 2.380351 -6.842236 32.696953 -4.641439 -1.980259 32.462383 8.652566 -23.493176 1.957794 -6.814867 -58.007736 -4.003458 4.911491 14.262813 -21.070815 0.376179 14.925011 -8.492367 -5.859809 13.511072 -2.204005 2.005088 62.390451 2.971344 7.454438 -19.024278 13.038048 -9.501985 -25.544928 2.212894 7.193445 
-1.699884 0.246581 0.986815 119.589520 -3.680416 88.496557 -2.779194 -8.471639 0.261916 -2.443507 -18.398970 5.547476 2.384768 5.147641 -12.134525 0.000000 -0.000000 0.000000 -2.921407 -9.363916 0.365891 -2.416765 -9.776224 14.654223 1.786394 -19.756332 -17.904540 0.000000 -0.000000 0.000000 4.722314 7.141984 4.970003 -5.987861 4.476186 -0.222320 -1.017289 2.191537 2.281281 -7.410948 32.383445 -4.932434 -2.065811 32.823731 7.956467 -23.571502 1.778719 -6.730290 -57.253308 -4.258990 4.571521 14.281121 -20.931675 -0.174277 15.111935 -8.554003 -5.584998 13.656326 -2.272758 2.154266 61.190901 2.430709 6.975037 -18.088462 12.289173 -8.336144 -26.424435 3.584217 9.805970 
-1.699309 0.247586 0.986765 119.160163 -3.648135 88.551431 -2.749022 -8.323265 0.387914 -2.452588 -18.306281 5.366468 2.393062 5.293092 -12.139966 0.000000 -0.000000 0.000000 -2.961275 -9.352392 0.381550 -2.337243 -9.410736 14.535178 1.899056 -19.740095 -17.917118 0.000000 -0.000000 0.000000 4.704908 7.036601 4.810902 -5.983668 4.411418 -0.292267 -0.982837 2.112529 2.274766 -7.695887 32.194297 -5.268155 -2.105584 33.015894 7.772168 -23.668718 1.834973 -6.777827 -56.765213 -4.500495 4.288306 14.210648 -20.953469 -0.416322 14.921561 -8.751021 -5.492750 13.769934 -2.530297 2.235307 60.577767 2.123126 6.668117 -17.848198 12.248919 -8.058784 -26.611450 4.446132 10.661750 
-1.699193 0.248660 0.986755 118.848102 -3.567371 88.615828 -2.695586 -8.185049 0.367425 -2.491717 -18.205750 5.410721 2.376697 5.334405 -12.235041 0.000000 -0.000000 0.000000 -2.962002 -9.356420 0.371789 -2.263648 -9.150050 14.431507 2.024353 -19.701431 -17.938983 0.000000 -0.000000 0.000000 4.676856 6.876446 4.653210 -5.926606 4.206213 -0.420089 -0.953226 1.948126 2.263963 -7.799406 32.110523 -5.481595 -2.180262 33.145198 7.519208 -23.663529 1.847248 -6.717058 -56.304326 -4.866863 4.017183 14.344689 -21.070707 -0.892728 14.880588 -8.838519 -5.450730 13.831725 -2.924083 2.170690 60.035328 1.626591 6.424991 -17.736624 12.100255 -7.804675 -26.923892 5.230820 11.700089 
-1.698921 0.249885 0.986668 118.547549 -3.476579 88.615680 -2.634560 -8.022462 0.523752 -2.478728 -18.214211 5.217433 2.336586 5.434366 -12.221058 0.000000 -0.000000 0.000000 -2.974803 -9.430073 0.398098 -2.204967 -8.887133 14.396469 2.133482 -19.639342 -17.971841 0.000000 -0.000000 0.000000 4.618050 6.708368 4.553203 -5.804716 3.994758 -0.560886 -0.884990 1.809650 2.317893 -7.870466 32.055278 -5.638490 -2.280433 33.090509 7.286476 -23.697013 1.783557 -6.549255 -55.819526 -5.253165 3.761254 14.454826 -21.314989 -1.477703 15.125190 -8.851178 -5.482347 13.950995 -3.321084 2.110120 59.471917 1.120753 6.094740 -17.648388 12.039945 -7.655740 -27.342768 5.711957 12.726783 
